<svg xmlns="http://www.w3.org/2000/svg" xmlns:xlink="http://www.w3.org/1999/xlink" width="480" height="320" version="1.1"><defs><radialGradient id="sheen" cx=".5" cy=".5" r=".5" fx=".75" fy=".5"><stop offset="0%" stop-color="#555"/><stop offset="100%" stop-color="#FFF"/></radialGradient><linearGradient id="hide" x1=".3" x2=".7" y1=".6" y2="1"><stop offset="0%" stop-color="#000"/><stop offset="100%" stop-color="#fff"/></linearGradient><linearGradient id="accent" x1=".3" x2=".7" y1=".7" y2=".3"><stop offset="0%" stop-color="#44af6a"/><stop offset="100%" stop-color="#6e2039"/></linearGradient><mask id="gradientMask"><rect width="480" height="320" style="fill:url(#hide)"/></mask><mask id="stripeMask"><rect width="480" height="320" style="fill:url(#strote)"/></mask><mask id="folderNameMask"><rect width="480" height="320" style="fill:url(#folderName)"/></mask></defs><pattern id="stripes" width="12" height="12" patternUnits="userSpaceOnUse"><rect width="12" height="12" x="0" style="fill:#fff"/><rect width="6" height="12" x="6" style="fill:#000"/></pattern><pattern id="strote" width="480" height="480" patternUnits="userSpaceOnUse"><g><g transform="translate(240 240) rotate(30)"><rect width="960" height="960" x="-480" y="-480" style="fill:url(#stripes)"/></g></g></pattern><pattern id="folderName" width="119.602" height="60" patternUnits="userSpaceOnUse"><text x="59.801" y="15" style="fill:#fff;font:700 28px Evogria,sans-serif;dominant-baseline:middle;text-anchor:middle;stroke:#000;stroke-width:2px">SINOBUZ</text><text x="0" y="45" style="fill:#fff;font:700 28px Evogria,sans-serif;dominant-baseline:middle;text-anchor:middle;stroke:#000;stroke-width:2px">SINOBUZ</text><text x="119.602" y="45" style="fill:#fff;font:700 28px Evogria,sans-serif;dominant-baseline:middle;text-anchor:middle;stroke:#000;stroke-width:2px">SINOBUZ</text></pattern><rect width="480" height="320" style="fill:#000"/><g mask="url(#folderNameMask)"><rect width="480" height="320" style="fill:url(#accent)"/></g><g mask="url(#gradientMask)"><rect width="480" height="320" style="fill:#6e2039" mask="url(#stripeMask)"/></g><g><g mask="url(#gradientMask)" transform="translate(480, 320) rotate(180)"><rect width="480" height="320" style="fill:#44af6a" mask="url(#stripeMask)"/></g></g><ellipse cx="0" cy="160" rx="80" ry="160" style="fill:url(#sheen);fill-opacity:.2;mix-blend-mode:screen"/><ellipse cx="480" cy="160" rx="80" ry="160" style="fill:url(#sheen);fill-opacity:.2;mix-blend-mode:screen"/></svg>